<svg width="141" height="48" viewBox="0 0 141 48" fill="none" xmlns="http://www.w3.org/2000/svg">
<path d="M74.6687 34.9634C92.212 27.7875 102.426 17.0521 97.4816 10.9851C92.5376 4.91821 74.3081 5.81722 56.7648 12.9931C39.2216 20.169 29.0079 30.9045 33.9519 36.9714C38.896 43.0383 57.1255 42.1393 74.6687 34.9634Z" fill="#4100FC"/>
<path d="M1.46 32.02C1.28667 32.02 1.16667 31.8867 1.1 31.62C1.08667 31.58 1.08 31.5133 1.08 31.42C1.08 31.2867 1.10667 31.0867 1.16 30.82C1.18667 30.6467 1.20667 30.5133 1.22 30.42C1.24667 30.3133 1.26667 30.2333 1.28 30.18C1.68 28.3 2.07333 26.6467 2.46 25.22L3.86 18.9C3.86 18.8733 3.88 18.8333 3.92 18.78C3.96 18.7267 4.00667 18.6933 4.06 18.68H4.16C4.16 18.6933 4.18 18.7 4.22 18.7C4.38 18.7 4.56 18.68 4.76 18.64C4.96 18.6 5.14 18.58 5.3 18.58C5.59333 18.58 5.86667 18.6 6.12 18.64C6.24 18.64 6.37333 18.6467 6.52 18.66C6.66667 18.6733 6.82 18.68 6.98 18.68C7.03333 18.68 7.09333 18.6667 7.16 18.64H7.52H7.98L8.46 18.62C8.55333 18.6067 8.66667 18.6 8.8 18.6C8.90667 18.6 8.96 18.5933 8.96 18.58H9.28H9.96H10.8C11.5467 18.58 12.04 18.5933 12.28 18.62C12.32 18.62 12.3733 18.6267 12.44 18.64C12.52 18.64 12.5667 18.6533 12.58 18.68C12.6733 18.68 12.7667 18.6733 12.86 18.66C12.9533 18.6467 13.04 18.64 13.12 18.64C13.3067 18.6 13.4867 18.58 13.66 18.58C13.74 18.58 13.82 18.6 13.9 18.64C13.98 18.68 14.0667 18.7 14.16 18.7L14.26 18.68H14.32C14.36 18.7067 14.4 18.7467 14.44 18.8C14.4933 18.84 14.52 18.8733 14.52 18.9L15.92 25.22C16.3467 26.78 16.7333 28.4333 17.08 30.18C17.08 30.26 17.1067 30.3467 17.16 30.44C17.1733 30.5333 17.1933 30.66 17.22 30.82C17.2467 30.98 17.26 31.1133 17.26 31.22C17.2733 31.2733 17.28 31.3467 17.28 31.44C17.28 31.6267 17.24 31.78 17.16 31.9C17.1067 31.98 17.0267 32.02 16.92 32.02H16.66C16.46 32.02 16.3067 32.0133 16.2 32H15.68H15.18H14.78C14.6733 32 14.62 31.9933 14.62 31.98H13.36V31.94C13.3067 31.9133 13.24 31.9 13.16 31.9C13.16 31.9 13.1533 31.9067 13.14 31.92C13.14 31.92 13.1333 31.9267 13.12 31.94C13.12 31.9667 13.1067 31.98 13.08 31.98H13.02H12.86C12.7933 31.9533 12.66 31.94 12.46 31.94C12.06 31.9133 11.7467 31.9 11.52 31.9C11.44 31.78 11.3533 31.54 11.26 31.18C11.18 30.82 11.0933 30.42 11 29.98C10.9733 29.7667 10.9467 29.62 10.92 29.54C10.64 29.5933 10.2733 29.62 9.82 29.62H9.2H8.62L8.48 30.26C8.30667 31.14 8.16667 31.6867 8.06 31.9C8.00667 31.9 7.94 31.9133 7.86 31.94C7.83333 31.9533 7.80667 31.9667 7.78 31.98C7.76667 31.98 7.76 31.98 7.76 31.98H7.68C7.6 31.98 7.54 31.9667 7.5 31.94C7.47333 31.9133 7.44 31.9 7.4 31.9L6.5 31.94H6.18H5.88C5.82667 31.9667 5.76 31.98 5.68 31.98H5.6H3.76H3.58C3.43333 31.9933 3.13333 32 2.68 32H2.16C2.05333 32.0133 1.9 32.02 1.7 32.02H1.46ZM10.7 27.12C10.6067 26.4667 10.56 26.14 10.56 26.14C10.52 25.9533 10.4533 25.6 10.36 25.08C10.3333 24.9467 10.2667 24.5867 10.16 24C10.0533 23.36 10 23.04 10 23.04C9.96 22.7733 9.92 22.54 9.88 22.34L9.86 22.08C9.82 22.0133 9.8 21.9533 9.8 21.9L9.78 21.78C9.76667 21.8067 9.76 21.8467 9.76 21.9C9.76 21.9533 9.74667 21.9867 9.72 22V22.08L9.68 22.34C9.66667 22.4333 9.64667 22.54 9.62 22.66C9.60667 22.7667 9.58667 22.8867 9.56 23.02L9.46 23.58C9.31333 24.42 9.22667 24.9067 9.2 25.04C9.18667 25.1867 9.15333 25.4067 9.1 25.7C9.07333 25.7933 9.04667 25.9333 9.02 26.12L8.86 27.04H9.88L10.02 27H10.06C10.22 27 10.34 27.0133 10.42 27.04C10.4733 27.04 10.52 27.0533 10.56 27.08C10.6133 27.0933 10.66 27.1067 10.7 27.12ZM22.0794 32.06C21.946 32.06 21.8327 32.0467 21.7394 32.02H21.3394H21.0194H20.8394L19.9394 31.8L19.8794 31.64C19.866 31.64 19.8594 31.5667 19.8594 31.42C19.8327 31.02 19.8194 30.56 19.8194 30.04C19.8194 29.6667 19.806 29.3667 19.7794 29.14C19.7794 28.7667 19.7727 28.4867 19.7594 28.3V27.6C19.6927 26.9867 19.6527 26.3133 19.6394 25.58C19.626 24.8467 19.6194 24.1333 19.6194 23.44L19.6594 21.4C19.6727 21.1733 19.6794 20.8267 19.6794 20.36C19.6794 19.8933 19.6727 19.5467 19.6594 19.32C19.6194 19.0133 19.706 18.7867 19.9194 18.64C20.0527 18.5733 20.286 18.54 20.6194 18.54C21.1127 18.54 21.746 18.5267 22.5194 18.5L22.9594 18.46C23.7594 18.4067 24.2594 18.38 24.4594 18.38C24.646 18.38 24.7794 18.3867 24.8594 18.4C25.046 18.4133 25.1727 18.44 25.2394 18.48C25.306 18.52 25.366 18.5867 25.4194 18.68C25.486 18.7733 25.5327 18.8467 25.5594 18.9C25.7194 19.1133 25.8794 19.34 26.0394 19.58C26.2794 19.94 26.4727 20.22 26.6194 20.42L27.9394 22.44L28.5794 23.4C28.5794 23.0533 28.5927 22.78 28.6194 22.58V20.72L28.6794 19.3C28.6927 19.1933 28.706 19.12 28.7194 19.08C28.7327 19.04 28.7527 19.0133 28.7794 19C28.806 18.9733 28.826 18.9533 28.8394 18.94C28.9994 18.8067 29.1594 18.7067 29.3194 18.64C29.4527 18.6133 29.5594 18.6 29.6394 18.6H30.7794H31.0194C31.126 18.6133 31.3127 18.62 31.5794 18.62C31.8727 18.62 32.106 18.6267 32.2794 18.64H32.9594H33.5194H33.7594C34.106 18.64 34.3394 18.6933 34.4594 18.8C34.606 18.9067 34.6794 19.14 34.6794 19.5L34.6594 19.7L34.6394 20.02C34.626 20.1 34.6194 20.2067 34.6194 20.34V20.58V20.74L34.6594 20.94V21.58C34.646 21.8067 34.6394 22.1933 34.6394 22.74V24.22C34.626 24.5667 34.6194 25.0533 34.6194 25.68V26.84V27.52V30.68L34.5394 31.44C34.486 31.7467 34.3794 31.9333 34.2194 32L33.8794 32.02L33.5394 32H32.6394H31.4594H30.2394H29.9394C29.6727 32.0267 29.4127 31.9933 29.1594 31.9C29.0394 31.8467 28.906 31.76 28.7594 31.64L26.7194 28.78C26.7194 28.7667 26.5727 28.52 26.2794 28.04C26.1727 27.88 26.0727 27.74 25.9794 27.62C25.9527 27.5667 25.9194 27.5267 25.8794 27.5C25.8527 27.46 25.8327 27.44 25.8194 27.44C25.6994 27.44 25.6394 27.4933 25.6394 27.6V28.04C25.626 28.1733 25.6194 28.3933 25.6194 28.7V29.48V30.24C25.5927 30.4 25.5794 30.6 25.5794 30.84V31.24V31.54L25.5994 31.64C25.5994 31.7467 25.546 31.8133 25.4394 31.84C25.3727 31.8933 25.266 31.9067 25.1194 31.88C24.666 31.9067 24.306 31.9333 24.0394 31.96C23.8794 31.9733 23.5994 31.9933 23.1994 32.02C22.7994 32.0467 22.426 32.06 22.0794 32.06ZM37.5803 32.02C37.487 32.02 37.4003 31.9867 37.3203 31.92C37.2403 31.84 37.1803 31.74 37.1403 31.62C37.087 31.38 37.047 31.1133 37.0203 30.82C37.007 30.7267 37.0003 30.6 37.0003 30.44V30.18L37.0203 27.7C37.0203 26.86 37.0403 26.0333 37.0803 25.22V18.9C37.0803 18.7667 37.167 18.7 37.3403 18.7C38.2603 18.7 38.947 18.6933 39.4003 18.68H41.4003C41.4403 18.68 41.4736 18.6733 41.5003 18.66C41.527 18.6467 41.5603 18.64 41.6003 18.64C41.7736 18.6133 42.0136 18.6067 42.3203 18.62C42.547 18.62 42.787 18.64 43.0403 18.68C43.1203 18.7333 43.1803 18.7467 43.2203 18.72C43.247 18.72 43.3003 18.7067 43.3803 18.68C43.5803 18.68 43.7336 18.6933 43.8403 18.72C43.9603 18.7467 44.0536 18.8067 44.1203 18.9C44.187 19.02 44.2403 19.1667 44.2803 19.34C44.2936 19.4733 44.3003 19.7533 44.3003 20.18V24.08V24.38C44.287 24.4867 44.2803 24.7267 44.2803 25.1C44.2803 25.5 44.267 25.8133 44.2403 26.04L44.2203 26.94C44.207 27.14 44.2003 27.3933 44.2003 27.7L44.1803 28.02V29.3C44.1803 30.1 44.147 30.78 44.0803 31.34C44.0803 31.5267 44.0336 31.7133 43.9403 31.9C43.7003 31.9 43.3536 31.9133 42.9003 31.94C42.687 31.94 42.547 31.9533 42.4803 31.98H42.2803H42.2203C42.127 31.98 42.0803 31.9667 42.0803 31.94C41.9736 31.9133 41.9136 31.9 41.9003 31.9L41.7403 31.98H39.9003C39.887 31.9933 39.7803 32 39.5803 32H38.8203H38.0803L37.5803 32.02ZM48.9097 32.06C48.7764 32.06 48.6697 32.0467 48.5897 32.02H48.1897H47.8297H47.6897L46.7897 31.8L46.7097 31.64C46.6964 31.64 46.6897 31.5667 46.6897 31.42C46.6897 31.2333 46.683 31.08 46.6697 30.96L46.6497 30.04C46.6364 29.84 46.6297 29.54 46.6297 29.14L46.5897 27.6C46.5897 27.2667 46.603 26.8067 46.6297 26.22L46.6497 25.54C46.6764 25.1133 46.6897 24.4133 46.6897 23.44V23.3V23.04C46.663 23 46.6497 22.9267 46.6497 22.82L46.6297 22.68C46.6297 22.3467 46.6497 22 46.6897 21.64C46.7164 21.1867 46.7297 20.7733 46.7297 20.4L46.7097 19.84C46.6964 19.6933 46.6897 19.52 46.6897 19.32C46.6897 19.3067 46.6764 19.2867 46.6497 19.26C46.6364 19.2333 46.6297 19.2067 46.6297 19.18C46.6297 19.0467 46.683 18.9333 46.7897 18.84C46.8964 18.7467 47.0297 18.68 47.1897 18.64C47.403 18.5733 47.6764 18.54 48.0097 18.54H51.3897H52.9497C52.963 18.54 52.983 18.5533 53.0097 18.58C53.0364 18.6067 53.063 18.6267 53.0897 18.64C53.1964 18.7333 53.3297 18.9133 53.4897 19.18C53.5297 19.26 53.5697 19.3533 53.6097 19.46C53.663 19.5533 53.7297 19.7067 53.8097 19.92C53.903 20.1333 54.0297 20.46 54.1897 20.9L54.4297 21.52C54.5364 21.72 54.6564 22.0067 54.7897 22.38C54.8297 22.4867 54.8697 22.5933 54.9097 22.7C54.963 22.8067 55.0097 22.9133 55.0497 23.02C55.0764 23.1133 55.103 23.1867 55.1297 23.24C55.1697 23.28 55.1897 23.3067 55.1897 23.32C55.283 23.5333 55.383 23.64 55.4897 23.64C55.623 23.64 55.7297 23.5333 55.8097 23.32C55.823 23.3067 55.8364 23.28 55.8497 23.24C55.863 23.1867 55.8964 23.1067 55.9497 23L56.2497 22.34L57.0497 20.64L57.3897 19.92C57.4297 19.8133 57.4564 19.7267 57.4697 19.66C57.4964 19.58 57.523 19.5267 57.5497 19.5C57.603 19.38 57.7297 19.1733 57.9297 18.88C57.9964 18.7733 58.0564 18.6933 58.1097 18.64C58.1497 18.6267 58.1764 18.6067 58.1897 18.58C58.203 18.5533 58.223 18.54 58.2497 18.54H59.8097H63.1897H63.4897H63.6897H63.9497H64.3897C64.4164 18.54 64.4497 18.64 64.4897 18.84L64.5497 20.8C64.5764 21.36 64.5897 22.24 64.5897 23.44V24.6C64.5897 25.0533 64.5697 25.56 64.5297 26.12C64.4897 26.68 64.463 27.04 64.4497 27.2L64.4097 27.6V28.3C64.423 28.4867 64.4297 28.7667 64.4297 29.14C64.4297 29.54 64.4364 29.84 64.4497 30.04C64.4497 30.4267 64.463 30.6933 64.4897 30.84V31.42V31.64L64.4297 31.8L63.5297 32.02H63.3897H63.0297H62.6297C62.5364 32.0467 62.423 32.06 62.2897 32.06C62.0497 32.06 61.7164 32.0467 61.2897 32.02L60.7897 32C60.6964 31.9867 60.5897 31.9733 60.4697 31.96C60.3497 31.9467 60.203 31.94 60.0297 31.94L59.2497 31.88C59.223 31.88 59.203 31.8867 59.1897 31.9H59.0297C58.963 31.9 58.923 31.8267 58.9097 31.68C58.8297 31.4133 58.7897 30.96 58.7897 30.32C58.7897 29.8933 58.783 29.56 58.7697 29.32L58.7497 28.24C58.7364 28 58.7297 27.6533 58.7297 27.2C58.7297 27.0933 58.683 27.04 58.5897 27.04C58.5364 27.04 58.483 27.1067 58.4297 27.24L58.2097 27.78L58.0297 28.28C58.003 28.36 57.9764 28.44 57.9497 28.52C57.923 28.6 57.8897 28.6733 57.8497 28.74L57.7497 28.98C57.6297 29.2467 57.4764 29.5467 57.2897 29.88C57.0897 30.24 56.843 30.5267 56.5497 30.74C56.3897 30.8333 56.2497 30.88 56.1297 30.88H55.8297C55.6697 30.88 55.5364 30.8667 55.4297 30.84H54.9897H54.5897C54.0564 29.9867 53.5564 29.0533 53.0897 28.04L52.7897 27.3C52.7097 27.1267 52.6564 27.04 52.6297 27.04C52.5364 27.04 52.4897 27.0933 52.4897 27.2V28.14C52.4897 29.0733 52.4764 29.76 52.4497 30.2C52.423 30.8933 52.3764 31.3733 52.3097 31.64C52.2964 31.8133 52.2564 31.9 52.1897 31.9H52.0497L51.9497 31.88C51.4964 31.9067 51.1364 31.9333 50.8697 31.96C50.7097 31.9733 50.4297 31.9933 50.0297 32.02C49.6297 32.0467 49.2564 32.06 48.9097 32.06ZM68.5227 32C68.456 32 68.356 31.9933 68.2227 31.98C68.0893 31.9533 67.9293 31.9333 67.7427 31.92L67.3227 31.82C67.256 31.8067 67.2027 31.7933 67.1627 31.78C67.136 31.7533 67.1293 31.7333 67.1427 31.72C67.1427 31.3733 67.1227 30.9133 67.0827 30.34C67.0827 30.14 67.076 29.9667 67.0627 29.82C67.0493 29.66 67.036 29.5267 67.0227 29.42L66.9827 28.56C66.9827 28.3333 66.9693 28.0467 66.9427 27.7L66.9227 27.08C66.9227 26.5733 66.916 26.18 66.9027 25.9C66.8893 25.62 66.8827 25.0333 66.8827 24.14C66.8827 23.3 66.8893 22.4333 66.9027 21.54C66.916 20.6467 66.956 19.8 67.0227 19C67.0227 18.8533 67.1827 18.7333 67.5027 18.64C67.7027 18.6133 68.036 18.6 68.5027 18.6C69.5827 18.6 70.376 18.58 70.8827 18.54C72.456 18.5133 73.6427 18.5 74.4427 18.5H75.3227C76.416 18.5267 77.256 18.5667 77.8427 18.62C78.056 18.62 78.2093 18.8733 78.3027 19.38C78.3427 19.4733 78.3893 19.7133 78.4427 20.1C78.4827 20.3 78.536 20.5467 78.6027 20.84C78.616 20.92 78.616 21 78.6027 21.08C78.6027 21.1467 78.6027 21.1867 78.6027 21.2C78.5893 21.3333 78.516 21.4 78.3827 21.4C78.3293 21.3867 78.2493 21.38 78.1427 21.38C77.5827 21.38 76.896 21.4267 76.0827 21.52L75.0227 21.6C74.5827 21.6533 74.236 21.6867 73.9827 21.7C73.9427 21.7 73.8893 21.78 73.8227 21.94C73.7693 22.1133 73.7093 22.5133 73.6427 23.14L73.6027 23.64C73.6027 23.8133 73.6227 23.9267 73.6627 23.98C73.7027 24.02 73.7893 24.04 73.9227 24.04H75.7027C76.2227 24.04 76.816 24.0733 77.4827 24.14H77.7227C77.896 24.18 78.0027 24.2467 78.0427 24.34C78.096 24.42 78.1293 24.5067 78.1427 24.6L78.2227 26.38V26.44C78.2227 26.6667 77.9827 26.8 77.5027 26.84C77.2227 26.9067 76.6893 26.94 75.9027 26.94C75.2227 26.94 74.7827 26.9333 74.5827 26.92C74.196 26.92 73.9627 26.9267 73.8827 26.94C73.736 26.98 73.6427 27.06 73.6027 27.18C73.5627 27.2867 73.5427 27.4733 73.5427 27.74C73.5427 27.9133 73.5293 28.16 73.5027 28.48C73.4893 28.64 73.4827 28.8933 73.4827 29.24C74.3493 29.24 74.9893 29.2267 75.4027 29.2C75.856 29.16 76.496 29.14 77.3227 29.14C77.376 29.14 77.4293 29.1867 77.4827 29.28C77.5493 29.4133 77.656 29.7133 77.8027 30.18C77.8827 30.4467 77.9627 30.78 78.0427 31.18C78.0693 31.2733 78.0827 31.3733 78.0827 31.48C78.0827 31.76 77.9493 31.9 77.6827 31.9C77.336 31.9 76.8693 31.9133 76.2827 31.94C75.976 31.9667 75.496 31.98 74.8427 31.98C73.4427 31.98 72.3893 31.9867 71.6827 32H68.5227ZM92.4061 32C91.0328 32 90.0328 31.9933 89.4061 31.98C88.8328 31.98 88.3928 31.9733 88.0861 31.96L86.4461 31.94C86.3261 31.94 86.2128 31.8867 86.1061 31.78C85.9994 31.6733 85.9461 31.56 85.9461 31.44V27.04V25.12L85.9261 23.48C85.9261 22.9333 85.9394 22.2467 85.9661 21.42C85.9661 21.2467 85.9861 20.8 86.0261 20.08V19.62C86.0261 19.2467 86.0994 18.9467 86.2461 18.72C86.3128 18.6 86.4194 18.54 86.5661 18.54C87.2194 18.54 87.9328 18.5533 88.7061 18.58C88.8128 18.5933 88.9661 18.6 89.1661 18.6C89.6061 18.6 89.9328 18.6067 90.1461 18.62H91.2261C91.2794 18.62 91.4328 18.62 91.6861 18.62C91.9528 18.62 92.1594 18.6533 92.3061 18.72C92.5461 18.8533 92.6661 19.16 92.6661 19.64L92.6461 19.8C92.6461 19.84 92.6328 19.94 92.6061 20.1C92.5661 20.3 92.5461 20.4467 92.5461 20.54C92.5461 20.6867 92.5661 20.8733 92.6061 21.1C92.6328 21.26 92.6461 21.3667 92.6461 21.42L92.6661 21.54V24.34V25.64V26.88V27.12C92.6661 27.2267 92.7261 27.2933 92.8461 27.32C92.8861 27.3333 92.9728 27.34 93.1061 27.34H94.5661C94.9261 27.3267 95.4728 27.32 96.2061 27.32C96.3528 27.32 96.4728 27.3667 96.5661 27.46C96.6594 27.54 96.7061 27.6267 96.7061 27.72V31.54V31.58C96.7061 31.6867 96.6528 31.7733 96.5461 31.84C96.4261 31.8933 96.2861 31.9267 96.1261 31.94C95.9528 31.98 95.6794 32 95.3061 32H92.4061ZM99.0061 32.02C98.9128 32.02 98.8261 31.9867 98.7461 31.92C98.6661 31.84 98.6061 31.74 98.5661 31.62C98.5128 31.38 98.4728 31.1133 98.4461 30.82C98.4328 30.7267 98.4261 30.6 98.4261 30.44V30.18L98.4461 27.7C98.4461 26.86 98.4661 26.0333 98.5061 25.22V18.9C98.5061 18.7667 98.5928 18.7 98.7661 18.7C99.6861 18.7 100.373 18.6933 100.826 18.68H102.826C102.866 18.68 102.899 18.6733 102.926 18.66C102.953 18.6467 102.986 18.64 103.026 18.64C103.199 18.6133 103.439 18.6067 103.746 18.62C103.973 18.62 104.213 18.64 104.466 18.68C104.546 18.7333 104.606 18.7467 104.646 18.72C104.673 18.72 104.726 18.7067 104.806 18.68C105.006 18.68 105.159 18.6933 105.266 18.72C105.386 18.7467 105.479 18.8067 105.546 18.9C105.613 19.02 105.666 19.1667 105.706 19.34C105.719 19.4733 105.726 19.7533 105.726 20.18V24.08V24.38C105.713 24.4867 105.706 24.7267 105.706 25.1C105.706 25.5 105.693 25.8133 105.666 26.04L105.646 26.94C105.633 27.14 105.626 27.3933 105.626 27.7L105.606 28.02V29.3C105.606 30.1 105.573 30.78 105.506 31.34C105.506 31.5267 105.459 31.7133 105.366 31.9C105.126 31.9 104.779 31.9133 104.326 31.94C104.113 31.94 103.973 31.9533 103.906 31.98H103.706H103.646C103.553 31.98 103.506 31.9667 103.506 31.94C103.399 31.9133 103.339 31.9 103.326 31.9L103.166 31.98H101.326C101.313 31.9933 101.206 32 101.006 32H100.246H99.5061L99.0061 32.02ZM113.575 32.48C112.629 32.48 111.675 32.3733 110.715 32.16C109.769 31.9333 108.989 31.6267 108.375 31.24C108.215 30.76 108.095 30.28 108.015 29.8C107.935 29.32 107.835 28.6333 107.715 27.74V27.68C107.742 27.52 107.829 27.4 107.975 27.32C108.482 27.6267 108.969 27.86 109.435 28.02C109.902 28.1667 110.415 28.24 110.975 28.24H111.455L111.775 28.26C112.082 28.26 112.395 28.2133 112.715 28.12C112.889 28.0533 113.009 27.9267 113.075 27.74L112.015 27.22C111.202 26.8333 110.469 26.42 109.815 25.98C109.135 25.4867 108.649 24.86 108.355 24.1C108.209 23.6867 108.135 23.2333 108.135 22.74C108.135 21.54 108.502 20.5733 109.235 19.84C109.875 19.1867 110.742 18.72 111.835 18.44C112.782 18.2133 113.822 18.1 114.955 18.1C115.622 18.1 116.542 18.1733 117.715 18.32C117.835 18.3467 118.002 18.3733 118.215 18.4L118.815 18.52C119.269 18.6 119.602 18.64 119.815 18.64C119.829 18.64 119.849 18.66 119.875 18.7C119.915 18.74 119.949 18.7733 119.975 18.8C120.029 18.8933 120.082 18.94 120.135 18.94H120.155H120.175L120.215 19.36C120.215 19.56 120.235 19.7733 120.275 20C120.315 20.3333 120.335 20.6933 120.335 21.08C120.335 21.4133 120.315 21.6533 120.275 21.8C120.209 22.0667 120.089 22.26 119.915 22.38L118.055 22.14H117.855H117.575C117.122 22.14 116.602 22.1867 116.015 22.28L115.355 22.42C115.195 22.4467 115.115 22.4733 115.115 22.5C115.115 22.82 115.322 23.12 115.735 23.4C115.935 23.5067 116.135 23.6 116.335 23.68C116.535 23.7467 116.662 23.7933 116.715 23.82C117.702 24.1 118.555 24.5867 119.275 25.28C119.609 25.6 119.869 25.94 120.055 26.3C120.242 26.66 120.335 27.0067 120.335 27.34C120.335 27.54 120.309 27.7533 120.255 27.98C120.162 28.98 119.782 29.8467 119.115 30.58C118.462 31.2333 117.642 31.7133 116.655 32.02C115.802 32.3267 114.775 32.48 113.575 32.48ZM125.69 32.02C125.503 32.02 125.363 31.8933 125.27 31.64C125.07 31.2 124.97 30.4 124.97 29.24C124.97 28.12 124.99 26.8333 125.03 25.38C125.043 24.9133 125.05 24.1933 125.05 23.22L124.99 23.14H122.77C122.596 23.14 122.456 23.0467 122.35 22.86C122.256 22.66 122.183 22.3867 122.13 22.04C122.063 21.64 122.03 21.0667 122.03 20.32V20.04C122.03 19.9067 122.036 19.8 122.05 19.72V19.42V19.24C122.05 19.16 122.09 19.0933 122.17 19.04C122.25 18.9733 122.343 18.9267 122.45 18.9C122.583 18.86 122.783 18.84 123.05 18.84H124.57C124.903 18.84 125.156 18.8467 125.33 18.86L126.07 18.88H133.27C133.79 18.88 134.13 18.8867 134.29 18.9C134.356 18.9133 134.45 18.9267 134.57 18.94C134.69 18.9533 134.776 18.98 134.83 19.02C134.923 19.06 134.976 19.1133 134.99 19.18C135.016 19.2333 135.03 19.32 135.03 19.44V22.74C135.03 22.8867 134.97 22.9867 134.85 23.04C134.77 23.0667 134.663 23.08 134.53 23.08H133.89H133.23C132.923 23.08 132.69 23.0667 132.53 23.04H131.93C131.81 23.04 131.743 23.0667 131.73 23.12C131.73 23.1333 131.723 23.1533 131.71 23.18C131.696 23.1933 131.69 23.2133 131.69 23.24V23.54V24.22C131.69 24.42 131.683 24.5733 131.67 24.68C131.67 25.0667 131.643 25.9133 131.59 27.22L131.55 27.82C131.523 28.38 131.496 28.7867 131.47 29.04V30.94C131.47 31.3933 131.376 31.68 131.19 31.8C131.016 31.8667 130.896 31.9067 130.83 31.92L130.33 31.94C129.81 31.94 129.443 31.9533 129.23 31.98L127.13 32C126.863 32.0133 126.383 32.02 125.69 32.02Z" fill="white"/>
</svg>
