<?xml version="1.0" encoding="UTF-8"?>
<svg id="_Слой_2" data-name="Слой 2" xmlns="http://www.w3.org/2000/svg" viewBox="0 0 100.37 102.49">
  <defs>
    <style>
      .cls-1 {
        fill: #4100fc;
      }
    </style>
  </defs>
  <g id="_Слой_1-2" data-name="Слой 1">
    <g>
      <path class="cls-1" d="m34.94,28.76c0-2.85,2.71-5.57,5.85-5.57,3.43,0,6.07,2.64,6.07,5.57,0,3.14-2.64,5.78-6.07,5.78-3.14,0-5.85-2.64-5.85-5.78Zm11,48.19h-10.14v-36.06h10.14v36.06Z"/>
      <path class="cls-1" d="m61.5,50.25v11.49c0,4.07,3.71,5.93,8.35,5.93v10.07c-10.78,0-18.49-6.35-18.49-15.71v-11.78h-5.43v-9.35h5.43v-4.71l10.14-7.35v12.07h8.57v9.35h-8.57Z"/>
    </g>
    <path class="cls-1" d="m100.37,65.85l-13.75-2.44c-5.05,14.68-18.97,25.24-35.37,25.24-20.66,0-37.41-16.75-37.41-37.41S30.59,13.84,51.24,13.84c16.19,0,29.98,10.29,35.19,24.69l12.54-5.94C91.51,13.51,72.96,0,51.24,0,22.94,0,0,22.94,0,51.24s22.94,51.24,51.24,51.24c23.23,0,42.83-15.46,49.12-36.64Z"/>
  </g>
</svg>