<?xml version="1.0" encoding="UTF-8"?>
<svg id="_Слой_2" data-name="Слой 2" xmlns="http://www.w3.org/2000/svg" viewBox="0 0 418.16 74.26">
  <defs>
    <style>
      .cls-1 {
        fill: #fff;
      }

      .cls-2 {
        isolation: isolate;
      }

      .cls-3 {
        fill: #4100fc;
      }
    </style>
  </defs>
  <g id="_Слой_2-2" data-name=" Слой 2">
    <g id="_Слой_1-2" data-name=" Слой 1-2">
      <g class="cls-2">
        <g class="cls-2">
          <path class="cls-1" d="m73.87,41.32c-2.12,18.4-17.91,32.94-36.98,32.94C16.37,74.26,0,57.69,0,37.18S16.37,0,36.79,0c13.39,0,25.23,6.93,31.69,17.43l-11.65,8.28c-5.2-7.71-12.52-11.46-19.94-11.46-12.04,0-21.57,10.21-21.57,22.92s9.53,22.73,21.57,22.73c10.79,0,19.84-7.8,21.86-18.59h15.12Z"/>
          <path class="cls-1" d="m92.56,1.25v26.87h32.94V1.25h14.93v71.75h-14.93v-31.4h-32.94v31.4h-14.93V1.25h14.93Z"/>
          <path class="cls-1" d="m148.33,73.01V1.25h38.14v13.48h-23.21v13.39h26.97v13.48h-26.97v17.91h29.57v13.48h-44.5Z"/>
          <path class="cls-1" d="m268.63,41.32c-2.12,18.4-17.91,32.94-36.98,32.94-20.51,0-36.89-16.57-36.89-37.08S211.13,0,231.55,0c13.39,0,25.23,6.93,31.69,17.43l-11.65,8.28c-5.2-7.71-12.52-11.46-19.94-11.46-12.04,0-21.57,10.21-21.57,22.92s9.54,22.73,21.57,22.73c10.79,0,19.84-7.8,21.86-18.59h15.12Z"/>
          <path class="cls-1" d="m287.32,35.15L321.22,1.25h19.94l-35.25,35.25,36.41,36.5h-20.13l-26.87-26.97-7.99,7.99v18.97h-14.93V1.25h14.93v33.9Z"/>
        </g>
        <g class="cls-2">
          <path class="cls-3" d="m363.74,73.01h-14.93V1.25h14.93v71.75Z"/>
          <path class="cls-3" d="m384.36,73.01V14.74h-17.72V1.25h51.53v13.48h-18.88v58.27h-14.93Z"/>
        </g>
      </g>
    </g>
  </g>
</svg>